<svg id="Layer_1" enable-background="new 0 0 512 512" height="512" viewBox="0 0 512 512" width="512" xmlns="http://www.w3.org/2000/svg"><path d="m481 0v451h-150l-47.401-56.4-27.599 36.599-15 19.801h-40.8l-109.2 61v-61h-60v-451z" fill="#6aa9ff"/><path d="m481 0v451h-150l-47.401-56.4-27.599 36.599v-431.199z" fill="#2682ff"/><path d="m391 181v-90h-75c-24.6 0-46.5 11.999-60 30.3-9.6 12.299-15 27.9-15 44.7v45h-30v90h30v150h90v-150h60v-90h-60v-30z" fill="#fff5f5"/><path d="m331 181v30h60v90h-60v150h-75v-329.7c13.5-18.301 35.4-30.3 60-30.3h75v90z" fill="#efe2dd"/></svg>